<svg width="120" height="120" viewBox="0 0 120 120" fill="none" xmlns="http://www.w3.org/2000/svg">
<g clip-path="url(#clip0_10_5078)">
<path d="M98.7491 0H21.2509C9.51434 0 0 9.75831 0 21.7958V98.2042C0 110.242 9.51434 120 21.2509 120H98.7491C110.486 120 120 110.242 120 98.2042V21.7958C120 9.75831 110.486 0 98.7491 0Z" fill="#1E3101"/>
<path d="M54.0047 71.7952H35.3975L31.6151 83.8723C31.5636 84.0921 31.439 84.2865 31.2628 84.4223C31.0867 84.5581 30.8699 84.6266 30.6498 84.6162H21.2434C20.7063 84.6162 20.5181 84.3116 20.679 83.7073L36.7688 36.3456C36.9297 35.8505 37.0906 35.3681 37.2639 34.7334C37.4756 33.632 37.5842 32.5124 37.5882 31.3898C37.5784 31.3234 37.5815 31.2557 37.5974 31.1905C37.6133 31.1254 37.6416 31.0641 37.6808 31.0103C37.7199 30.9564 37.7691 30.9111 37.8254 30.8769C37.8817 30.8427 37.9441 30.8203 38.009 30.8109C38.0559 30.8059 38.1032 30.8059 38.1501 30.8109H50.9501C51.3239 30.8109 51.5392 30.9506 51.5937 31.2248L69.8667 83.7784C70.0317 84.3285 69.8667 84.6044 69.3716 84.6061H58.9133C58.7335 84.6267 58.5525 84.5792 58.4043 84.4726C58.2562 84.3661 58.1511 84.2077 58.1088 84.0272L54.0047 71.7952ZM38.306 61.6119H51.0244C50.7026 60.5101 50.3271 59.2711 49.8981 57.8951C49.469 56.5191 49.0127 55.0465 48.5292 53.4776L47.0811 48.7731C46.5993 47.2041 46.1562 45.6901 45.7519 44.2312C45.3476 42.7722 44.9853 41.4376 44.6652 40.2274H44.586C44.1327 42.4559 43.5684 44.6591 42.8953 46.8284C42.1428 49.3046 41.3779 51.8358 40.6007 54.422C39.8234 57.0082 39.0585 59.4032 38.306 61.6069V61.6119Z" fill="#99E83F"/>
<path d="M75.1764 43.5888H83.949C84.1876 43.5912 84.4189 43.6733 84.6078 43.8226C84.7968 43.972 84.9331 44.1805 84.9961 44.4165C85.185 44.845 85.3206 45.2962 85.3996 45.7595C85.5142 46.2903 85.5969 46.8279 85.6471 47.3691C85.7016 47.948 85.7263 48.5649 85.7288 49.2275C87.2332 47.4306 89.0474 45.9331 91.0805 44.81C93.262 43.5432 95.7354 42.9014 98.2417 42.9516C98.41 42.9276 98.5807 42.9729 98.7166 43.0776C98.8524 43.1822 98.9425 43.3377 98.967 43.5101C98.9743 43.5717 98.9743 43.6339 98.967 43.6955V53.6857C98.967 54.0716 98.6972 54.262 98.16 54.262C96.4894 54.1446 94.811 54.2702 93.1747 54.6352C91.7343 54.9275 90.3303 55.3839 88.9889 55.996C87.8329 56.547 86.61 57.1817 85.9665 57.8951V83.8723C85.9665 84.3674 85.7511 84.6162 85.3229 84.6162H75.9165C75.7298 84.643 75.5404 84.5929 75.3896 84.4768C75.2388 84.3607 75.139 84.1881 75.112 83.9967C75.1022 83.9277 75.1022 83.8576 75.112 83.7885V55.5848C75.112 54.3729 75.0988 53.0933 75.0724 51.7461C75.046 50.3988 74.9998 49.06 74.9338 47.7296C74.8972 46.5333 74.7897 45.3404 74.612 44.1575C74.5918 44.0775 74.5922 43.9934 74.6134 43.9135C74.6346 43.8337 74.6757 43.761 74.7327 43.7025C74.7898 43.644 74.8607 43.6018 74.9385 43.5801C75.0163 43.5584 75.0984 43.5579 75.1764 43.5787V43.5888Z" fill="#99E83F"/>
</g>
<defs>
<clipPath id="clip0_10_5078">
<rect width="120" height="120" fill="white"/>
</clipPath>
</defs>
</svg>
