<svg width="195" height="195" viewBox="0 0 195 195" fill="none" xmlns="http://www.w3.org/2000/svg">
<path d="M101.572 136.972C94.1258 136.639 86.7637 136.038 79.3599 135.213L81.9969 134.009C78.5179 138.808 74.14 142.888 69.2356 145.991C68.6217 146.378 68.0172 146.782 67.3948 147.152L65.502 148.21C65.1853 148.384 64.8734 148.568 64.5528 148.733L63.5824 149.209L61.6413 150.157C59.009 151.308 56.3484 152.389 53.6188 153.227C47.358 155.262 40.8758 156.421 34.3978 157.115C33.0543 157.259 31.8484 156.286 31.7044 154.943C31.6006 153.973 32.0778 153.076 32.8563 152.597L32.8902 152.577C35.732 150.835 38.552 149.062 41.1613 147.052C44.0335 144.886 46.762 142.545 49.1533 139.963L50.0425 138.99C50.328 138.66 50.598 138.32 50.877 137.986L51.2927 137.483C51.4271 137.313 51.55 137.138 51.6795 136.966C51.9303 136.618 52.2029 136.28 52.4373 135.926L53.1357 134.866C53.341 134.507 53.5658 134.15 53.7582 133.791C53.9418 133.432 54.1398 133.071 54.2863 132.721C54.3722 132.541 54.4403 132.371 54.501 132.207C54.5333 132.124 54.5697 132.037 54.5871 131.974C54.6079 131.912 54.6423 131.804 54.6296 131.851L57.0917 134.987C54.1082 134.968 51.1327 134.645 48.2199 134.018C45.3141 133.359 42.4975 132.371 39.7959 131.147L37.7968 130.172C37.1462 129.819 36.5072 129.445 35.8625 129.08C35.2086 128.73 34.6035 128.303 33.9818 127.902L33.054 127.293C32.7417 127.095 32.4567 126.858 32.157 126.642C29.7492 124.923 27.5512 122.928 25.5275 120.779C24.4942 119.722 23.5737 118.564 22.6347 117.424L21.322 115.636L20.9962 115.187L20.6944 114.721L20.0916 113.789L19.4906 112.856L18.9435 111.888L18.3977 110.92L18.1254 110.435L17.8814 109.935L16.9088 107.931L16.0601 105.867C14.9948 103.087 14.197 100.193 13.7205 97.2266C13.2696 94.2557 13.1797 91.2184 13.4458 88.2023L13.5666 87.072C13.6115 86.6958 13.6349 86.3168 13.7168 85.9454L14.1393 83.7075C14.5217 82.239 14.8871 80.7589 15.4532 79.3464L15.8471 78.2765C15.9764 77.919 16.1566 77.5835 16.3095 77.2362C16.6366 76.5517 16.9314 75.8488 17.2903 75.1815L18.4168 73.2068C18.5948 72.8735 18.8132 72.5579 19.0319 72.2424L19.6829 71.2939L20.3372 70.3475C20.5584 70.0414 20.7921 69.7795 21.019 69.4934L22.3927 67.8164C23.3167 66.7284 24.2396 65.6394 25.2034 64.5788C27.1194 62.4502 29.1217 60.3814 31.2364 58.4119C35.4566 54.4676 40.179 50.9647 45.2055 48.089C47.7192 46.6412 50.2786 45.3523 52.874 44.143C55.4643 42.916 58.1195 41.8304 60.7967 40.8073C68.5028 37.9058 76.5309 35.8492 84.692 34.7015C88.7726 34.1294 92.8859 33.7841 97.0063 33.6695C101.11 33.5877 105.213 33.6244 109.311 33.9075C117.501 34.4659 125.668 35.7609 133.612 38.0197L135.103 38.4331L136.579 38.9057C137.561 39.2284 138.552 39.5198 139.525 39.8697L142.438 40.9404C142.926 41.1113 143.405 41.3091 143.882 41.512L145.316 42.1114L146.75 42.7117C147.226 42.9158 147.69 43.1498 148.161 43.3676C149.097 43.8161 150.042 44.2436 150.97 44.7109L153.722 46.1764L154.41 46.5434L155.081 46.9435L156.421 47.7448L157.761 48.5471C158.208 48.8139 158.632 49.1207 159.068 49.4058C159.933 49.9937 160.803 50.5506 161.663 51.1661C162.513 51.8234 163.386 52.4543 164.212 53.1389C165.012 53.8518 165.842 54.5352 166.612 55.2775C169.712 58.2336 172.404 61.5808 174.658 65.1923C176.91 68.8061 178.734 72.686 180.038 76.7715C181.349 80.8506 182.108 85.1694 181.973 89.646C181.965 89.9212 181.967 90.2126 181.949 90.4745L181.89 91.2552L181.769 92.8165C181.654 93.8584 181.564 94.9001 181.403 95.942C181.123 98.0254 180.73 100.109 180.201 102.177C179.154 106.305 177.572 110.415 175.117 114.136C174.515 115.07 173.83 115.959 173.123 116.83L172.034 118.069L170.905 119.242C169.374 120.766 167.754 122.154 166.075 123.453C164.401 124.762 162.633 125.923 160.839 127.038C159.928 127.572 159.025 128.12 158.087 128.605C157.619 128.849 157.162 129.114 156.685 129.342L155.261 130.034C151.169 131.976 146.803 133.391 142.345 134.29L144.67 131.032C145.248 136.043 146.554 140.906 149.203 144.88C149.328 145.106 149.488 145.303 149.637 145.505C149.786 145.707 149.933 145.907 150.079 146.105C150.223 146.304 150.366 146.501 150.507 146.696C150.658 146.883 150.819 147.059 150.971 147.239C151.281 147.594 151.571 147.955 151.873 148.292C152.191 148.617 152.501 148.935 152.805 149.244C153.096 149.567 153.42 149.847 153.729 150.128C154.039 150.412 154.341 150.688 154.635 150.958C154.946 151.215 155.249 151.465 155.544 151.709C155.836 151.959 156.122 152.202 156.42 152.42C158.74 154.233 160.713 155.609 162.167 156.811L162.264 156.892C162.309 156.925 162.352 156.957 162.396 156.989C162.482 157.054 162.564 157.118 162.64 157.183C162.793 157.311 162.924 157.436 163.031 157.55C163.245 157.781 163.36 157.951 163.431 158.054C163.567 158.259 163.553 158.26 163.408 158.236C163.263 158.212 162.96 158.126 162.539 158.172C162.333 158.196 162.102 158.269 161.918 158.389C161.731 158.507 161.614 158.655 161.508 158.718C161.481 158.735 161.454 158.747 161.425 158.754C161.36 158.745 161.27 158.723 161.192 158.706C161.029 158.667 160.857 158.627 160.676 158.584C160.317 158.494 159.925 158.386 159.503 158.26C158.661 157.98 157.686 157.663 156.61 157.181C154.462 156.25 151.814 154.858 149.121 152.534C147.655 151.312 146.349 149.832 145.124 148.268C144.833 147.867 144.563 147.448 144.282 147.034L143.866 146.41C143.724 146.203 143.588 145.993 143.475 145.77C143.236 145.331 142.997 144.891 142.758 144.45L142.401 143.786C142.286 143.563 142.198 143.33 142.096 143.102C140.43 139.45 139.52 135.539 139.045 131.73C138.873 130.347 139.776 129.078 141.101 128.762L141.176 128.744C142.405 128.456 143.606 128.215 144.771 127.867C145.898 127.582 146.995 127.191 148.104 126.838C149.191 126.423 150.292 126.041 151.356 125.563C153.501 124.653 155.595 123.609 157.599 122.414C159.606 121.228 161.541 119.918 163.364 118.482C165.183 117.046 166.9 115.48 168.396 113.797C169.158 112.963 169.812 112.096 170.436 111.167C171.066 110.251 171.61 109.266 172.13 108.267C173.139 106.249 173.944 104.1 174.569 101.879C175.194 99.6568 175.641 97.3643 175.954 95.0418C176.042 94.4633 176.106 93.8794 176.165 93.2941C176.227 92.7096 176.294 92.126 176.329 91.5365C176.365 90.9548 176.432 90.3462 176.444 89.7869L176.471 88.1229C176.406 85.8867 176.077 83.6306 175.576 81.3994C175.263 80.2948 175.014 79.1759 174.615 78.0917C174.423 77.5487 174.268 76.994 174.047 76.4603L173.401 74.8538C173.202 74.312 172.924 73.8011 172.687 73.2744L172.319 72.4897C172.2 72.2261 172.072 71.967 171.929 71.7154C171.375 70.6997 170.848 69.6691 170.214 68.6995C169.033 66.7083 167.621 64.8696 166.168 63.0797L165.013 61.7938L164.437 61.1502C164.237 60.9432 164.028 60.7464 163.824 60.5437L162.594 59.3353C162.18 58.9381 161.73 58.5817 161.3 58.2025L160.649 57.6413L160.323 57.3613L159.979 57.105L158.606 56.078C158.164 55.7264 157.658 55.4123 157.168 55.089L155.694 54.1218C151.724 51.5991 147.508 49.4546 143.142 47.664C138.319 45.6881 133.208 44.13 128.047 42.9384C122.884 41.744 117.671 40.9124 112.601 40.3179L109.558 39.9922L106.502 39.7723C105.483 39.6839 104.46 39.6696 103.438 39.626C102.416 39.5888 101.393 39.5405 100.37 39.5514C96.2665 39.4814 92.2019 39.678 88.1339 40.1122C80.0092 40.9835 71.9789 42.8413 64.2687 45.5968C60.4132 46.9741 56.6368 48.5749 52.9637 50.3846C49.28 52.1804 45.766 54.1933 42.4613 56.5171C39.1498 58.8275 36.0651 61.4566 33.1483 64.2903C31.7053 65.7254 30.2761 67.1792 28.9144 68.7086C27.5345 70.2207 26.2066 71.7932 24.9208 73.3418C21.4293 77.8548 19.0933 83.3692 18.6609 89.1288C18.1786 94.8859 19.3674 100.781 21.7757 106.141C22.9693 108.83 24.5056 111.373 26.2678 113.741C28.0335 116.109 30.0428 118.298 32.2507 120.261C32.8167 120.735 33.3636 121.234 33.9433 121.69L35.7086 123.026L37.5485 124.254C37.8497 124.467 38.1753 124.64 38.4928 124.826L39.4488 125.379C42.0204 126.811 44.742 127.958 47.5553 128.773C50.6546 129.665 53.8677 130.136 57.0854 130.156L57.1803 130.157C58.4167 130.164 59.413 131.172 59.4054 132.409C59.4042 132.611 59.3726 132.818 59.3212 133.004L59.2535 133.243L59.1998 133.405L59.09 133.723L58.8636 134.293C58.7027 134.652 58.5444 135.011 58.3711 135.35C58.1938 135.683 58.0221 136.023 57.8376 136.348L57.2666 137.302C56.4773 138.541 55.6267 139.715 54.7144 140.818C52.8962 143.032 50.9012 145.042 48.786 146.876C44.5837 150.59 39.9849 153.713 35.2482 156.526L33.9242 152.54C42.3961 151.683 50.7973 149.802 58.5383 146.431C62.3999 144.743 66.0835 142.672 69.415 140.157C72.7451 137.645 75.716 134.681 78.1051 131.301L78.1148 131.288C78.5248 130.708 79.2042 130.429 79.8636 130.498C86.1817 131.181 92.5544 131.695 98.9084 132.019C102.086 132.177 105.264 132.287 108.429 132.303L110.798 132.292L113.156 132.227L115.493 132.095C116.255 132.014 117.034 131.96 117.78 131.855C118.255 131.781 118.73 131.707 119.184 131.637L119.268 131.624C119.921 131.523 120.544 131.81 120.905 132.312C125.785 139.135 131.686 144.905 138.246 149.19C144.795 153.488 151.9 156.399 158.969 157.922C160.645 158.281 161.889 158.54 162.691 158.769C163.092 158.883 163.381 158.992 163.561 159.098C163.605 159.124 163.643 159.151 163.672 159.178C163.814 159.196 164.073 159.15 164.25 159.031C164.434 158.916 164.539 158.773 164.6 158.68C164.661 158.586 164.692 158.519 164.714 158.491C164.728 158.491 164.741 158.492 164.754 158.496C164.764 158.51 164.789 158.474 164.779 158.555C164.771 158.621 164.754 158.725 164.67 158.88C164.59 159.031 164.408 159.242 164.149 159.362C164.023 159.422 163.89 159.458 163.769 159.474L163.681 159.484C163.673 159.486 163.676 159.487 163.672 159.489L163.661 159.499C163.628 159.525 163.587 159.552 163.538 159.578C163.439 159.631 163.315 159.679 163.156 159.727C162.841 159.822 162.406 159.9 161.849 159.954C160.738 160.056 159.141 160.046 157.088 159.782C155.636 159.591 154.185 159.336 152.737 159.028C151.295 158.699 149.847 158.347 148.42 157.9C145.555 157.039 142.736 155.927 140.003 154.593C134.537 151.927 129.428 148.356 124.984 144.125C122.092 141.391 119.458 138.336 117.096 135.061L120.109 136.242L118.889 136.441C118.483 136.505 118.07 136.578 117.683 136.608L116.502 136.729L115.911 136.788L115.331 136.824C113.779 136.934 112.249 136.977 110.722 137.011C107.675 137.056 104.661 136.985 101.663 136.888C101.634 136.917 101.607 136.943 101.572 136.972Z" fill="black"/>
</svg>
