<svg width="120" height="120" viewBox="0 0 120 120" fill="none" xmlns="http://www.w3.org/2000/svg">
<path fill-rule="evenodd" clip-rule="evenodd" d="M91.4062 0C108.75 0 120 11.25 120 28.5938V91.4062C120 108.75 108.75 120 91.4062 120H28.5938C11.25 120 0 108.75 0 91.4062V28.5938C0 11.25 11.25 0 28.5938 0H91.4062Z" fill="url(#paint0_linear_2_2597)"/>
<path d="M26 31C26 28.2386 28.2386 26 31 26H88C90.7614 26 93 28.2386 93 31V56H26V31Z" fill="white"/>
<path d="M24 58H95C95 59.6569 93.6569 61 92 61H27C25.3431 61 24 59.6569 24 58Z" fill="white"/>
<path fill-rule="evenodd" clip-rule="evenodd" d="M38.0295 17.9167C36.3727 17.9167 35.0295 19.2599 35.0295 20.9167V26.9567H33.0295V20.9167C33.0295 18.1554 35.2681 15.9167 38.0295 15.9167H49.3852V17.9167H38.0295Z" fill="white"/>
<path d="M57 14H50C48.3431 14 47 15.3431 47 17C47 18.6569 48.3431 20 50 20H57C58.6569 20 60 18.6569 60 17C60 15.3431 58.6569 14 57 14Z" fill="white"/>
<path fill-rule="evenodd" clip-rule="evenodd" d="M60.9889 63V91.534C60.9889 91.534 60.9889 94.011 64.0289 94.011H75.2415C75.7934 94.011 76.2409 94.452 76.2409 95.0063V96.0047C76.2409 96.5543 75.7922 97 75.2417 97H59.4659V63H60.9889ZM57.9358 63V91.534C57.9358 91.534 57.9358 94.011 54.8958 94.011H43.6832C43.1313 94.011 42.6838 94.452 42.6838 95.0063V96.0047C42.6838 96.5543 43.1325 97 43.6829 97H59.4588V63H57.9358Z" fill="white"/>
<defs>
<linearGradient id="paint0_linear_2_2597" x1="0" y1="0" x2="0" y2="120" gradientUnits="userSpaceOnUse">
<stop stop-color="#19D6FD"/>
<stop offset="1" stop-color="#1D64F0"/>
</linearGradient>
</defs>
</svg>
