<svg width="123" height="123" viewBox="0 0 123 123" fill="none" xmlns="http://www.w3.org/2000/svg">
<path fill-rule="evenodd" clip-rule="evenodd" d="M93.2605 0.203613C110.956 0.203613 122.434 11.6817 122.434 29.3771V93.4629C122.434 111.158 110.956 122.636 93.2605 122.636H29.1747C11.4793 122.636 0.0012207 111.158 0.0012207 93.4629V29.3771C0.0012207 11.6817 11.4793 0.203613 29.1747 0.203613H93.2605Z" fill="url(#paint0_linear_304_26)"/>
<path fill-rule="evenodd" clip-rule="evenodd" d="M69.0846 66.9175L100.273 35.061L22.1888 34.8932L53.4005 66.9078C57.7231 71.3416 64.7471 71.3479 69.0846 66.9175ZM101.773 36.8057V85.1551L78.0562 60.9723L101.773 36.8057ZM20.4067 36.9337V85.2831L44.1229 61.1003L20.4067 36.9337ZM69.6356 69.6039L76.0481 63.0907L98.9826 86.9072H23.2115L46.1194 63.0907L52.5585 69.6039C52.5585 69.6039 55.8072 72.8081 61.097 72.8731C66.3869 72.8081 69.6356 69.6039 69.6356 69.6039Z" fill="white"/>
<defs>
<linearGradient id="paint0_linear_304_26" x1="0.0012207" y1="0.203613" x2="0.0012207" y2="122.636" gradientUnits="userSpaceOnUse">
<stop stop-color="#1D62F0"/>
<stop offset="1" stop-color="#19D5FD"/>
</linearGradient>
</defs>
</svg>
