<svg width="120" height="120" viewBox="0 0 120 120" fill="none" xmlns="http://www.w3.org/2000/svg">
<g clip-path="url(#clip0_10_5072)">
<path d="M21.3306 0H98.6834C104.341 0 109.766 2.33054 113.766 6.47894C117.767 10.6273 120.014 16.2538 120.014 22.1205V97.8795C120.014 103.746 117.767 109.373 113.766 113.521C109.766 117.669 104.341 120 98.6834 120H21.3306C15.6734 120 10.2479 117.669 6.24759 113.521C2.24733 109.373 0 103.746 0 97.8795L0 22.1205C0 16.2538 2.24733 10.6273 6.24759 6.47894C10.2479 2.33054 15.6734 0 21.3306 0Z" fill="#1E3101"/>
<path d="M37.12 84.9428C34.3457 84.9702 31.5761 84.7014 28.855 84.1406C26.7051 83.715 24.613 83.0204 22.6245 82.072C22.3931 81.9248 22.2082 81.7106 22.0929 81.4557C21.9775 81.2008 21.9366 80.9165 21.9753 80.6378V70.5888C21.9642 70.4996 21.9772 70.409 22.0127 70.3271C22.0483 70.2451 22.1051 70.175 22.1768 70.1245C22.2609 70.0829 22.3541 70.0648 22.447 70.0721C22.5399 70.0793 22.6294 70.1116 22.7066 70.1658C24.9582 71.6175 27.3989 72.7267 29.9543 73.4596C32.3952 74.1755 34.9186 74.5443 37.4552 74.5559C40.5493 74.5559 42.7613 74.0632 44.0911 73.0779C44.695 72.6895 45.1944 72.1491 45.5432 71.507C45.8919 70.8649 46.0786 70.1419 46.0859 69.405C46.1001 68.5012 45.8747 67.6107 45.4343 66.8307C44.8463 65.9167 44.0676 65.1515 43.1559 64.5919C41.7341 63.6896 40.2345 62.9263 38.6764 62.3118L34.6049 60.5398C31.8025 59.388 29.1818 57.8083 26.8297 55.8531C25.1258 54.4312 23.7948 52.587 22.9597 50.4907C22.2448 48.5208 21.8864 46.431 21.9026 44.3262C21.85 41.3406 22.6488 38.4055 24.1988 35.889C25.7489 33.3726 27.9811 31.3869 30.6153 30.1812C33.9977 28.6399 37.6701 27.9039 41.3627 28.0275C43.8013 28.0156 46.2375 28.1854 48.6526 28.5355C50.5302 28.7585 52.3596 29.3005 54.0673 30.1399C54.2524 30.2482 54.4041 30.4086 54.5049 30.6026C54.6057 30.7967 54.6515 31.0163 54.6369 31.2362V40.5414C54.645 40.665 54.6379 40.7891 54.6158 40.9109C54.5996 40.9849 54.5638 41.0528 54.5125 41.1069C54.4611 41.161 54.3962 41.1992 54.3251 41.2171C54.1421 41.2367 53.9587 41.1837 53.8118 41.0689L53.2516 40.782C52.875 40.5973 52.4945 40.4223 52.11 40.257C51.3401 39.9305 50.5537 39.6473 49.7543 39.4086C49.2409 39.2555 48.7253 39.1218 48.2025 39.0075C45.9841 38.4948 43.7176 38.2396 41.4447 38.2467C40.1049 38.2221 38.7671 38.3641 37.4599 38.6696C36.5322 38.8858 35.6399 39.2412 34.8111 39.7246C34.1673 40.098 33.6383 40.6525 33.2852 41.3241C32.9685 41.934 32.8003 42.615 32.7953 43.3077C32.7832 44.1709 33.0406 45.015 33.5289 45.7142C34.1984 46.5809 35.029 47.2993 35.9714 47.8266C37.5062 48.7401 39.085 49.5717 40.7017 50.3181L43.7137 51.4995C46.725 52.6846 49.5517 54.3227 52.103 56.3612C53.928 57.8358 55.3806 59.7477 56.3363 61.9326C57.1595 63.9789 57.5757 66.1766 57.5599 68.3937C57.6189 71.5151 56.7201 74.5753 54.9932 77.1326C53.1884 79.7162 50.719 81.721 47.8674 82.9179C44.4544 84.3419 40.7978 85.0308 37.12 84.9428Z" fill="#99E83F"/>
<path d="M73.1922 73.7122L84.7553 74.3029C87.9639 74.3232 91.1404 74.968 94.1196 76.2038C96.1879 77.0703 97.9501 78.5737 99.1687 80.5112C100.212 82.3362 100.748 84.4254 100.716 86.5469C100.713 89.4254 99.7812 92.2201 98.0693 94.486C96.13 97.043 93.5741 99.0236 90.6599 100.228C87.0487 101.718 83.184 102.436 79.2984 102.338C75.4886 102.466 71.6934 101.791 68.1432 100.352C65.5901 99.3299 63.3626 97.5899 61.7111 95.3271C60.4507 93.5955 59.739 91.5012 59.6742 89.3327C59.702 88.3152 59.9529 87.3176 60.4079 86.4157C61.0365 85.1643 61.8163 84.0011 62.7285 82.9542C64.0197 81.4514 65.4074 80.0407 66.8821 78.7318C68.8965 76.9417 71.003 75.266 73.1922 73.7122ZM78.4053 69.66C76.3629 69.6597 74.3273 69.415 72.339 68.9308C70.4029 68.4733 68.557 67.6741 66.8821 66.568C65.2383 65.4845 63.8808 63.9932 62.9324 62.229C61.9089 60.2298 61.404 57.9891 61.4674 55.7265C61.444 53.1628 62.1209 50.6446 63.4199 48.4632C64.7948 46.2008 66.7567 44.3861 69.0808 43.2272C71.8906 41.8552 74.9727 41.189 78.0771 41.2826C79.5445 41.2826 80.9697 41.3531 82.3526 41.4941C83.7356 41.6351 84.8897 41.7898 85.8148 41.9584C86.1921 42.0143 86.5461 42.058 86.8719 42.0848C87.1977 42.1115 87.4954 42.1285 87.7673 42.1285H98.9179C99.2413 42.1285 99.4054 42.3254 99.4054 42.7192V50.5732C99.4361 50.6976 99.4181 50.8295 99.3553 50.9402C99.2925 51.0509 99.19 51.1313 99.0702 51.1639C98.9932 51.1834 98.9128 51.1834 98.8358 51.1639C98.292 51.1639 97.4294 51.1201 96.2715 51.0375C95.1135 50.9548 94.0845 50.8527 93.2242 50.7409C94.0764 52.4044 94.4972 54.269 94.4455 56.1519C94.546 58.836 93.8185 61.4835 92.3686 63.7094C90.9233 65.7568 88.9259 67.3148 86.6281 68.1869C83.9993 69.2036 81.2107 69.7032 78.4053 69.66ZM77.2638 74.8109L68.6331 80.3824C67.5941 79.2803 66.7774 77.9747 66.2304 76.5417C65.7091 75.158 65.4697 73.6773 65.5272 72.1929C65.5767 70.9841 65.7962 69.7893 66.1789 68.6464C66.5508 67.5413 67.1061 66.5122 67.8197 65.6054L75.8784 68.9842C75.7 69.3837 75.5898 69.8122 75.5526 70.2507C75.4987 70.7556 75.4987 71.2651 75.5526 71.77C75.5507 72.3252 75.7064 72.8688 76.0003 73.333C76.3589 73.8796 76.7835 74.3763 77.2638 74.8109ZM90.3739 88.3214C90.4081 87.8471 90.3286 87.3714 90.1425 86.9367C89.9565 86.5019 89.6695 86.1217 89.3074 85.8298C88.4232 85.2218 87.423 84.8189 86.375 84.6485C85.0044 84.3808 83.6155 84.2255 82.2214 84.1842L73.2648 83.7612C72.3566 84.365 71.5915 85.1735 71.0263 86.1264C70.5697 86.7703 70.2756 87.5223 70.1707 88.3141C70.2171 89.2717 70.6096 90.1761 71.2701 90.8471C72.2099 91.822 73.3729 92.5338 74.6502 92.9157C76.3876 93.4853 78.2032 93.7563 80.025 93.7179C82.0312 93.7765 84.0345 93.5209 85.9671 92.9595C87.2275 92.6122 88.3787 91.9302 89.3074 90.9808C89.9763 90.2674 90.3577 89.3163 90.3739 88.3214ZM83.8598 55.7265C83.8761 54.6786 83.668 53.64 83.2504 52.6856C82.8458 51.7902 82.1929 51.0404 81.3752 50.5319C80.3953 49.9612 79.2821 49.6835 78.1592 49.7297C77.3977 49.6827 76.6347 49.7927 75.9145 50.0535C75.1943 50.3143 74.5311 50.7206 73.9634 51.249C73.4361 51.8354 73.0305 52.5278 72.7717 53.2834C72.5129 54.0389 72.4063 54.8415 72.4585 55.6415C72.4406 57.1149 72.9481 58.5432 73.8837 59.6523C74.4262 60.254 75.0919 60.7218 75.8319 61.0213C76.5718 61.3208 77.3671 61.4445 78.1592 61.3831C79.682 61.464 81.1739 60.918 82.3104 59.8638C82.8346 59.3259 83.2435 58.6794 83.5105 57.9665C83.7775 57.2536 83.8965 56.4903 83.8598 55.7265Z" fill="#99E83F"/>
</g>
<defs>
<clipPath id="clip0_10_5072">
<rect width="120" height="120" fill="white"/>
</clipPath>
</defs>
</svg>
