<svg width="120" height="120" viewBox="0 0 120 120" fill="none" xmlns="http://www.w3.org/2000/svg">
<path fill-rule="evenodd" clip-rule="evenodd" d="M91.4062 0C108.75 0 120 11.25 120 28.5938V91.4062C120 108.75 108.75 120 91.4062 120H28.5938C11.25 120 0 108.75 0 91.4062V28.5938C0 11.25 11.25 0 28.5938 0H91.4062Z" fill="black"/>
<path d="M25 27.5952H45.7031L64.8395 53.5684L88.6595 27L94.3192 27.0992L67.6611 57.3049L95 94.4048H74.3051L56.2433 70.2006L34.1786 95H28.6091L53.5036 66.6625L25 27.5952ZM43.7509 31.4308H32.817L76.5608 90.4699H87.2979L43.7509 31.4308Z" fill="white"/>
</svg>
