<svg width="120" height="120" viewBox="0 0 120 120" fill="none" xmlns="http://www.w3.org/2000/svg">
<path fill-rule="evenodd" clip-rule="evenodd" d="M91.4062 0C108.75 0 120 11.25 120 28.5938V91.4062C120 108.75 108.75 120 91.4062 120H28.5938C11.25 120 0 108.75 0 91.4062V28.5938C0 11.25 11.25 0 28.5938 0H91.4062Z" fill="#1DA1F2"/>
<path fill-rule="evenodd" clip-rule="evenodd" d="M26.677 30.8215C26.677 30.8215 40.294 47.7475 61.038 48.7655C61.038 48.7655 56.804 37.5395 69.461 29.8445C69.461 29.8445 79.744 23.8045 89.668 33.5845C89.668 33.5845 94.144 33.3675 99.539 29.4005C99.539 29.4005 100.333 33.0505 93.298 38.9215C93.298 38.9215 97.212 38.6045 101.655 35.6945C101.655 35.6945 100.809 40.7195 93.562 44.3695C93.562 44.3695 95.767 84.1275 56.968 92.8295C56.968 92.8295 36.45 97.4595 22 86.1235C22 86.1235 37.328 87.7195 45.471 79.1775C45.471 79.1775 35.253 80.1355 30.223 68.0805C30.223 68.0805 35.332 68.9585 37.408 67.2825C37.408 67.2825 26.63 67.3615 24.235 51.2355C24.235 51.2355 28.626 53.4705 31.5 53.0715C31.5 53.0715 19.299 45.5355 26.677 30.8215Z" fill="white"/>
</svg>
